<?xml version="1.0" encoding="UTF-8"?>
<!DOCTYPE svg PUBLIC "-//W3C//DTD SVG 1.1//EN" "http://www.w3.org/Graphics/SVG/1.1/DTD/svg11.dtd">
<!-- Creator: CorelDRAW X6 -->
<svg xmlns="http://www.w3.org/2000/svg" xml:space="preserve" width="1200px" height="1200px" version="1.1" style="shape-rendering:geometricPrecision; text-rendering:geometricPrecision; image-rendering:optimizeQuality; fill-rule:evenodd; clip-rule:evenodd"
viewBox="0 0 3137 3137"
 xmlns:xlink="http://www.w3.org/1999/xlink">
 <defs>
  <style type="text/css">
   <![CDATA[
    .fil0 {fill:#46A5F2}
    .fil1 {fill:white}
   ]]>
  </style>
 </defs>
 <g id="Layer_x0020_1">
  <metadata id="CorelCorpID_0Corel-Layer"/>
  <circle class="fil0" cx="1568" cy="1568" r="1568"/>
  <path class="fil1" d="M1857 793l-10 0 -250 0 -532 0c-84,0 -157,54 -157,138 0,331 0,905 0,1237l1321 0 0 -606 0 -4 0 -11 0 -2 0 -13 0 0 0 -13 0 -1 0 -12 0 -1 0 -12 0 -2 0 -12 0 -1 0 -12 0 0 0 -12 0 -1 0 -10 0 -3 0 -8 0 -6 0 -5 0 -8 0 -2 0 -10 0 -1 0 -9 0 -5 0 -4 0 -9 0 0 0 -9 0 -5 0 -4 0 -9 0 -2 0 -6 0 -8 0 0 0 -8 0 -6 0 -382c0,-84 -73,-138 -157,-138l-214 0zm230 769l-1037 0 0 -493c0,-40 23,-100 114,-100l457 0 180 0 172 0c91,0 114,60 114,100l0 493zm-16 644l0 43c0,52 -43,95 -95,95l-45 0c-52,0 -95,-43 -95,-95l0 -43 236 0zm-769 0l0 43c0,52 -43,95 -95,95l-45 0c-52,0 -95,-43 -95,-95l0 -43 236 0zm-118 -465l0 0c65,0 118,53 118,118l0 0c0,65 -53,118 -118,118l0 0c-65,0 -118,-53 -118,-118l0 0c0,-65 53,-118 118,-118zm769 0l0 0c65,0 118,53 118,118l0 0c0,65 -53,118 -118,118l0 0c-65,0 -118,-53 -118,-118l0 0c0,-65 53,-118 118,-118z"/>
 </g>
</svg>
